<?xml version="1.0" encoding="UTF-8"?>
<svg width="26px" height="32px" viewBox="0 0 26 32" version="1.1" xmlns="http://www.w3.org/2000/svg" xmlns:xlink="http://www.w3.org/1999/xlink">
    <!-- Generator: Sketch 53 (72520) - https://sketchapp.com -->
    <title>Shape</title>
    <desc>Created with Sketch.</desc>
    <g id="Julia-Allert-Site" stroke="none" stroke-width="1" fill="none" fill-rule="evenodd">
        <g id="Home-page-2" transform="translate(-1226.000000, -29.000000)" fill="#000000" fill-rule="nonzero">
            <g id="HEader-menu" transform="translate(-8.000000, -9.000000)">
                <g id="noun_profile_1723372" transform="translate(1234.000000, 38.000000)">
                    <path d="M22.0924855,18.5925926 C21.6416185,18.2962963 20.9653179,18.3703704 20.6647399,18.8148148 C20.3641618,19.2592593 20.4393064,19.9259259 20.8901734,20.2222222 C22.8439306,21.5555556 23.8959538,23.3333333 23.8959538,25.1851852 C23.8959538,26.3703704 23.8959538,30 13,30 C2.10404624,30 2.10404624,26.3703704 2.10404624,25.1851852 C2.10404624,21.1851852 6.98843931,17.9259259 13,17.9259259 C17.433526,17.9259259 20.9653179,12.5185185 20.9653179,8.07407407 C20.9653179,3.62962963 17.3583815,0 13,0 C8.6416185,0 5.03468208,3.62962963 5.03468208,8.07407407 C5.03468208,11.037037 6.61271676,14.3703704 8.94219653,16.2962963 C3.75722543,17.4814815 0,21.037037 0,25.1111111 C0,29.7037037 4.3583815,32 13,32 C21.6416185,32 26,29.7037037 26,25.1111111 C25.9248555,22.6666667 24.5722543,20.2962963 22.0924855,18.5925926 Z M7.06358382,8.14814815 C7.06358382,4.81481481 9.69364162,2.14814815 12.9248555,2.14814815 C16.1560694,2.14814815 18.7861272,4.81481481 18.7861272,8.14814815 C18.7861272,11.5555556 16.0057803,15.9259259 12.9248555,15.9259259 C9.84393064,15.9259259 7.06358382,11.5555556 7.06358382,8.14814815 Z" id="Shape"></path>
                </g>
            </g>
        </g>
    </g>
</svg>