<?xml version="1.0" encoding="UTF-8"?>
<svg width="25px" height="32px" viewBox="0 0 25 32" version="1.1" xmlns="http://www.w3.org/2000/svg" xmlns:xlink="http://www.w3.org/1999/xlink">
    <!-- Generator: Sketch 53 (72520) - https://sketchapp.com -->
    <title>Shape</title>
    <desc>Created with Sketch.</desc>
    <g id="Symbols" stroke="none" stroke-width="1" fill="none" fill-rule="evenodd">
        <g id="HEader-menu" transform="translate(-1293.000000, -40.000000)" fill="#FFFFFF" fill-rule="nonzero">
            <g id="noun_bag_958239">
                <g transform="translate(1114.000000, 11.000000)">
                    <path d="M191.5,29 C187.964286,29 185.071429,31.893054 185.071429,35.4211687 L185.071429,38.0672547 L180.071429,38.0672547 C179.464286,38.0672547 179,38.5259096 179,39.1256891 L179,55.707828 C179,58.6361632 181.392857,61 184.357143,61 L198.642857,61 C201.607143,61 204,58.6361632 204,55.707828 L204,39.1256891 C204,38.5259096 203.535714,38.0672547 202.928571,38.0672547 L197.928571,38.0672547 L197.928571,35.4211687 C197.928571,31.893054 195.035714,29 191.5,29 Z M187.214286,35.4211687 C187.214286,33.0573319 189.142857,31.1168688 191.5,31.1168688 C193.857143,31.1168688 195.785714,33.0573319 195.785714,35.4211687 L195.785714,38.0672547 L187.214286,38.0672547 L187.214286,35.4211687 Z M202,41 L202,55.8756631 C202,57.5660793 200.561576,58.9184123 198.763547,58.9184123 L184.37931,58.9184123 C182.581281,58.9184123 181.142857,57.5660793 181.142857,55.8756631 L181.142857,41 L185.098522,41 L185.098522,42.7580329 C185.098522,43.3327744 185.56601,43.7722827 186.17734,43.7722827 C186.78867,43.7722827 187.256158,43.3327744 187.256158,42.7580329 L187.256158,41 L195.8867,41 L195.8867,42.7580329 C195.8867,43.3327744 196.354187,43.7722827 196.965517,43.7722827 C197.576847,43.7722827 198.044335,43.3327744 198.044335,42.7580329 L198.044335,41 L202,41 Z" id="Shape"></path>
                </g>
            </g>
        </g>
    </g>
</svg>