<?xml version="1.0" encoding="UTF-8"?>
<svg width="25px" height="32px" viewBox="0 0 25 32" version="1.1" xmlns="http://www.w3.org/2000/svg" xmlns:xlink="http://www.w3.org/1999/xlink">
    <!-- Generator: Sketch 53 (72520) - https://sketchapp.com -->
    <title>noun_bag_958239</title>
    <desc>Created with Sketch.</desc>
    <g id="Julia-Allert-Site" stroke="none" stroke-width="1" fill="none" fill-rule="evenodd">
        <g id="Home-page-2" transform="translate(-1295.000000, -29.000000)" fill="#000000" fill-rule="nonzero">
            <g id="HEader-menu" transform="translate(-8.000000, -9.000000)">
                <g id="noun_bag_958239" transform="translate(1303.000000, 38.000000)">
                    <path d="M12.5,0 C8.96428571,0 6.07142857,2.89305402 6.07142857,6.42116869 L6.07142857,9.06725469 L1.07142857,9.06725469 C0.464285714,9.06725469 0,9.52590959 0,10.1256891 L0,26.707828 C0,29.6361632 2.39285714,32 5.35714286,32 L19.6428571,32 C22.6071429,32 25,29.6361632 25,26.707828 L25,10.1256891 C25,9.52590959 24.5357143,9.06725469 23.9285714,9.06725469 L18.9285714,9.06725469 L18.9285714,6.42116869 C18.9285714,2.89305402 16.0357143,0 12.5,0 Z M8.21428571,6.42116869 C8.21428571,4.05733186 10.1428571,2.1168688 12.5,2.1168688 C14.8571429,2.1168688 16.7857143,4.05733186 16.7857143,6.42116869 L16.7857143,9.06725469 L8.21428571,9.06725469 L8.21428571,6.42116869 Z M23,12 L23,26.8756631 C23,28.5660793 21.5615764,29.9184123 19.7635468,29.9184123 L5.37931034,29.9184123 C3.58128079,29.9184123 2.14285714,28.5660793 2.14285714,26.8756631 L2.14285714,12 L6.09852217,12 L6.09852217,13.7580329 C6.09852217,14.3327744 6.56600985,14.7722827 7.1773399,14.7722827 C7.78866995,14.7722827 8.25615764,14.3327744 8.25615764,13.7580329 L8.25615764,12 L16.8866995,12 L16.8866995,13.7580329 C16.8866995,14.3327744 17.3541872,14.7722827 17.9655172,14.7722827 C18.5768473,14.7722827 19.044335,14.3327744 19.044335,13.7580329 L19.044335,12 L23,12 Z" id="Shape"></path>
                </g>
            </g>
        </g>
    </g>
</svg>