<?xml version="1.0" encoding="UTF-8"?>
<svg width="14px" height="14px" viewBox="0 0 14 14" version="1.1" xmlns="http://www.w3.org/2000/svg" xmlns:xlink="http://www.w3.org/1999/xlink">
    <!-- Generator: Sketch 53 (72520) - https://sketchapp.com -->
    <title>Shape</title>
    <desc>Created with Sketch.</desc>
    <g id="Julia-Allert-Site" stroke="none" stroke-width="1" fill="none" fill-rule="evenodd">
        <g id="Home-page-Cabinet-personal" transform="translate(-1419.000000, -96.000000)" fill="#000000" fill-rule="nonzero">
            <path d="M1426.76802,102.993398 L1432.84885,96.9125794 C1433.05291,96.7012987 1433.04999,96.3654574 1432.84229,96.1577548 C1432.63459,95.9500522 1432.29874,95.9471338 1432.08746,96.1511956 L1426.00664,102.232014 L1419.92583,96.1511525 C1419.71454,95.9470907 1419.3787,95.9500091 1419.171,96.1577117 C1418.9633,96.3654143 1418.96038,96.7012556 1419.16444,96.9125364 L1425.24526,102.993398 L1419.1644,109.074217 C1419.02442,109.209411 1418.96828,109.409612 1419.01756,109.597874 C1419.06684,109.786136 1419.21386,109.93316 1419.40213,109.982438 C1419.59039,110.031715 1419.79059,109.975577 1419.92578,109.835601 L1426.00664,103.754782 L1432.08745,109.835612 C1432.29873,110.039673 1432.63458,110.036755 1432.84228,109.829052 C1433.04998,109.62135 1433.0529,109.285508 1432.84884,109.074228 L1426.76802,102.993398 Z" id="Shape"></path>
        </g>
    </g>
</svg>