<?xml version="1.0" encoding="UTF-8"?>
<svg width="40px" height="31px" viewBox="0 0 40 31" version="1.1" xmlns="http://www.w3.org/2000/svg" xmlns:xlink="http://www.w3.org/1999/xlink">
    <!-- Generator: Sketch 53 (72520) - https://sketchapp.com -->
    <title>Shape</title>
    <desc>Created with Sketch.</desc>
    <g id="Julia-Allert-Site" stroke="none" stroke-width="1" fill="none" fill-rule="evenodd">
        <g id="Home-page-2" transform="translate(-1184.000000, -40.000000)" fill-rule="nonzero" stroke="#000000" stroke-width="2">
            <g id="cogs-solid" transform="translate(1185.000000, 41.000000)">
                <path d="M30.0092664,9.93382122 L29.4967103,10.6779954 C29.3091897,10.9538083 28.9091459,11.0682966 28.5528569,10.9590123 C27.8152761,10.7300356 27.1402021,10.4021826 26.546387,9.99106539 C26.2588555,9.7933128 26.1838473,9.44464376 26.3713679,9.17403496 L26.883924,8.42986074 C26.4526268,8.01353949 26.1150898,7.52956605 25.8900651,7.00396048 L24.8587021,7.00396048 C24.483661,7.00396048 24.1586254,6.78018782 24.0961186,6.46794689 C23.9711049,5.84346502 23.9648542,5.18775907 24.0961186,4.53725713 C24.1586254,4.2250162 24.483661,3.99603952 24.8587021,3.99603952 L25.8900651,3.99603952 C26.1150898,3.47043395 26.4526268,2.98646051 26.883924,2.57013926 L26.3713679,1.82596504 C26.1838473,1.55535624 26.2526048,1.2066872 26.546387,1.00893461 C27.1402021,0.597817383 27.8215267,0.269964405 28.5528569,0.0409877226 C28.9091459,-0.0682966033 29.3091897,0.0461917381 29.4967103,0.32200456 L30.0092664,1.06617878 C30.6655884,0.967302485 31.3344116,0.967302485 31.9907336,1.06617878 L32.5032897,0.32200456 C32.6908103,0.0461917381 33.0908541,-0.0682966033 33.4471431,0.0409877226 C34.1847239,0.269964405 34.8597979,0.597817383 35.453613,1.00893461 C35.7411445,1.2066872 35.8161527,1.55535624 35.6286321,1.82596504 L35.116076,2.57013926 C35.5473732,2.98646051 35.8849102,3.47043395 36.1099349,3.99603952 L37.1412979,3.99603952 C37.516339,3.99603952 37.8413746,4.21981218 37.9038814,4.53205311 C38.0288951,5.15653498 38.0351458,5.81224093 37.9038814,6.46274287 C37.8413746,6.7749838 37.516339,7.00396048 37.1412979,7.00396048 L36.1099349,7.00396048 C35.8849102,7.52956605 35.5473732,8.01353949 35.116076,8.42986074 L35.6286321,9.17403496 C35.8161527,9.44464376 35.7473952,9.7933128 35.453613,9.99106539 C34.8597979,10.4021826 34.1784733,10.7300356 33.4471431,10.9590123 C33.0908541,11.0682966 32.6908103,10.9538083 32.5032897,10.6779954 L31.9907336,9.93382122 C31.3406623,10.0326975 30.6655884,10.0326975 30.0092664,9.93382122 L30.0092664,9.93382122 Z M30.5381875,7.46211697 C32.6699974,9.10019152 35.1008143,6.67074987 33.4618125,4.54014614 C31.3300026,2.89653756 28.8991857,5.33151324 30.5381875,7.46211697 L30.5381875,7.46211697 Z M23.2513577,15.8398485 L25.279708,16.8147094 C25.8876112,17.1512685 26.1524403,17.8650059 25.9116866,18.5033077 C25.3760095,19.9075716 24.3227119,21.1957806 23.3476592,22.3215128 C22.9022648,22.837957 22.1318528,22.9656174 21.5239496,22.6290582 L19.7724662,21.6541974 C18.8094512,22.4491732 17.6899463,23.0816722 16.4681211,23.493667 L16.4681211,25.4433888 C16.4681211,26.116507 15.9685571,26.6967814 15.2824089,26.8128362 C13.8017734,27.0565515 12.2489118,27.0681569 10.7141067,26.8128362 C10.0219396,26.6967814 9.51033795,26.1223098 9.51033795,25.4433888 L9.51033795,23.493667 C8.28851271,23.0758695 7.16900781,22.4491732 6.20599285,21.6541974 L4.45450938,22.6232555 C3.85262503,22.9598146 3.07619421,22.8321543 2.63079979,22.3157101 C1.65574714,21.1899779 0.626524892,19.9017688 0.090847818,18.5033077 C-0.149905923,17.8708087 0.114923192,17.1570712 0.722826389,16.8147094 L2.72710129,15.8398485 C2.49236639,14.6270751 2.49236639,13.3794853 2.72710129,12.1609092 L0.722826389,11.1802455 C0.114923192,10.8436864 -0.155924767,10.129949 0.090847818,9.49744994 C0.626524892,8.09318604 1.65574714,6.804977 2.63079979,5.67924479 C3.07619421,5.16280062 3.84660618,5.03514027 4.45450938,5.37169939 L6.20599285,6.34656028 C7.16900781,5.55158443 8.28851271,4.9190854 9.51033795,4.50709062 L9.51033795,2.5515661 C9.51033795,1.88425061 10.0038831,1.30397627 10.6900313,1.1879214 C12.1706668,0.944206176 13.7295473,0.932600689 15.2643524,1.18211865 C15.9565194,1.29817352 16.4681211,1.87264512 16.4681211,2.5515661 L16.4681211,4.50128788 C17.6899463,4.9190854 18.8094512,5.54578169 19.7724662,6.34075753 L21.5239496,5.36589664 C22.125834,5.02933753 22.9022648,5.15699788 23.3476592,5.67344204 C24.3227119,6.79917426 25.3459153,8.08738329 25.8815924,9.4916472 C26.1223461,10.1241462 25.8876112,10.8378837 25.279708,11.1802455 L23.2513577,12.1551064 C23.4860926,13.3736825 23.4860926,14.6212724 23.2513577,15.8398485 Z M15.7905253,16.9249114 C19.4764117,12.6634511 14.0036175,7.79874518 9.20947473,11.0750886 C5.52358833,15.3365489 10.9963825,20.2012548 15.7905253,16.9249114 Z M30.0092664,27.9338212 L29.4967103,28.6779954 C29.3091897,28.9538083 28.9091459,29.0682966 28.5528569,28.9590123 C27.8152761,28.7300356 27.1402021,28.4021826 26.546387,27.9910654 C26.2588555,27.7933128 26.1838473,27.4446438 26.3713679,27.174035 L26.883924,26.4298607 C26.4526268,26.0135395 26.1150898,25.5295661 25.8900651,25.0039605 L24.8587021,25.0039605 C24.483661,25.0039605 24.1586254,24.7801878 24.0961186,24.4679469 C23.9711049,23.843465 23.9648542,23.1877591 24.0961186,22.5372571 C24.1586254,22.2250162 24.483661,21.9960395 24.8587021,21.9960395 L25.8900651,21.9960395 C26.1150898,21.4704339 26.4526268,20.9864605 26.883924,20.5701393 L26.3713679,19.825965 C26.1838473,19.5553562 26.2526048,19.2066872 26.546387,19.0089346 C27.1402021,18.5978174 27.8215267,18.2699644 28.5528569,18.0409877 C28.9091459,17.9317034 29.3091897,18.0461917 29.4967103,18.3220046 L30.0092664,19.0661788 C30.6655884,18.9673025 31.3344116,18.9673025 31.9907336,19.0661788 L32.5032897,18.3220046 C32.6908103,18.0461917 33.0908541,17.9317034 33.4471431,18.0409877 C34.1847239,18.2699644 34.8597979,18.5978174 35.453613,19.0089346 C35.7411445,19.2066872 35.8161527,19.5553562 35.6286321,19.825965 L35.116076,20.5701393 C35.5473732,20.9864605 35.8849102,21.4704339 36.1099349,21.9960395 L37.1412979,21.9960395 C37.516339,21.9960395 37.8413746,22.2198122 37.9038814,22.5320531 C38.0288951,23.156535 38.0351458,23.8122409 37.9038814,24.4627429 C37.8413746,24.7749838 37.516339,25.0039605 37.1412979,25.0039605 L36.1099349,25.0039605 C35.8849102,25.5295661 35.5473732,26.0135395 35.116076,26.4298607 L35.6286321,27.174035 C35.8161527,27.4446438 35.7473952,27.7933128 35.453613,27.9910654 C34.8597979,28.4021826 34.1784733,28.7300356 33.4471431,28.9590123 C33.0908541,29.0682966 32.6908103,28.9538083 32.5032897,28.6779954 L31.9907336,27.9338212 C31.3406623,28.0326975 30.6655884,28.0326975 30.0092664,27.9338212 Z M30.5381875,24.4618125 C32.6699974,26.1008143 35.1008143,23.6699974 33.4618125,21.5381875 C31.3300026,19.8991857 28.8991857,22.3300026 30.5381875,24.4618125 L30.5381875,24.4618125 Z" id="Shape"></path>
            </g>
        </g>
    </g>
</svg>