<?xml version="1.0" encoding="UTF-8"?>
<svg width="20px" height="15px" viewBox="0 0 20 15" version="1.1" xmlns="http://www.w3.org/2000/svg" xmlns:xlink="http://www.w3.org/1999/xlink">
    <!-- Generator: Sketch 53 (72520) - https://sketchapp.com -->
    <title>Group</title>
    <desc>Created with Sketch.</desc>
    <g id="Julia-Allert-Site" stroke="none" stroke-width="1" fill="none" fill-rule="evenodd">
        <g id="COLLECTION_ONE-Select-size" transform="translate(-1224.000000, -2486.000000)" fill="#000000" fill-rule="nonzero">
            <g id="Size-deschis" transform="translate(1135.000000, 2481.000000)">
                <g id="Language-Copy-3" transform="translate(85.230179, 0.000000)">
                    <g id="Group" transform="translate(3.816759, 5.736009)">
                        <path d="M19.0837965,7.02879345 C19.0839708,6.93697479 19.0533769,6.84772453 18.9968638,6.77518782 L17.7963646,5.2453067 L17.7963646,5.2453067 L16.4633967,2.46183027 C16.0492685,1.60263569 15.1785614,1.05483869 14.221775,1.05153554 L11.793869,1.05153554 L11.793869,0.412366879 C11.793869,0.18462294 11.6085305,0 11.3799038,0 L2.52932754,0 C2.30070087,0 2.11536233,0.18462294 2.11536233,0.412366879 C2.11536233,0.640110818 2.30070087,0.824733758 2.52932754,0.824733758 L10.9659386,0.824733758 L10.9659386,5.43911914 C10.9659386,5.66686307 11.1512771,5.85148601 11.3799038,5.85148601 L17.2271625,5.85148601 L18.2620755,7.16899819 L18.2620755,10.6885495 L16.6683094,10.6885495 C16.4739279,9.59443332 15.5193444,8.79704414 14.4039197,8.79704414 C13.288495,8.79704414 12.3339115,9.59443332 12.13953,10.6885495 L8.03299507,10.6885495 C7.83861356,9.59443332 6.88403003,8.79704414 5.76860534,8.79704414 C4.65318066,8.79704414 3.69859713,9.59443332 3.50421562,10.6885495 L2.32234493,10.6885495 C2.09371826,10.6885495 1.90837972,10.8731724 1.90837972,11.1009164 C1.90837972,11.3286603 2.09371826,11.5132833 2.32234493,11.5132833 L3.50835527,11.5132833 C3.71226162,12.5979336 4.66289283,13.3840213 5.77067517,13.3840213 C6.87845751,13.3840213 7.82908872,12.5979336 8.03299507,11.5132833 L12.1353903,11.5132833 C12.3392967,12.5979336 13.2899279,13.3840213 14.3977102,13.3840213 C15.5054926,13.3840213 16.4561238,12.5979336 16.6600301,11.5132833 L18.255866,11.5132833 C18.7131194,11.5132833 19.0837965,11.1440374 19.0837965,10.6885495 L19.0837965,7.02879345 Z M11.793869,1.87420747 L14.2279845,1.87420747 C14.866423,1.87441665 15.4478704,2.24022865 15.7223989,2.81440395 L16.7842197,5.03293776 L11.793869,5.03293776 L11.793869,1.87420747 Z M5.76860534,12.5606951 C5.17132974,12.561529 4.63243894,12.2036596 4.4034846,11.6541386 C4.17453026,11.1046176 4.30066065,10.4718069 4.72299869,10.0510995 C5.14533673,9.63039214 5.78060021,9.50474875 6.33225114,9.73281909 C6.88390208,9.96088942 7.24315861,10.4976996 7.24232151,11.092669 C7.24118144,11.9029666 6.58204361,12.5595595 5.76860534,12.5606951 L5.76860534,12.5606951 Z M14.3977102,12.5606951 C13.8006223,12.5606946 13.2623667,12.2022956 13.0340649,11.6527082 C12.805763,11.1031209 12.9324049,10.4706484 13.354906,10.0503688 C13.7774071,9.63008931 14.4125081,9.50482427 14.9639048,9.73301573 C15.5153014,9.9612072 15.8743337,10.4978871 15.8734962,11.092669 C15.8723542,11.9037709 15.2119567,12.5606959 14.3977102,12.5606951 Z" id="Shape"></path>
                        <path d="M3.81675944,8.12601294 C3.81675944,7.86202041 3.6458773,7.64801218 3.4350835,7.64801218 L1.3358658,7.64801218 C1.125072,7.64801218 0.95418986,7.86202041 0.95418986,8.12601294 C0.95418986,8.39000547 1.125072,8.60401371 1.3358658,8.60401371 L3.4350835,8.60401371 C3.6458773,8.60401371 3.81675944,8.39000547 3.81675944,8.12601294 Z" id="Shape"></path>
                        <path d="M0.424084382,5.73600914 L5.30105478,5.73600914 C5.53527012,5.73600914 5.72513916,5.52200091 5.72513916,5.25800838 C5.72513916,4.99401584 5.53527012,4.78000761 5.30105478,4.78000761 L0.424084382,4.78000761 C0.189869045,4.78000761 0,4.99401584 0,5.25800838 C0,5.52200091 0.189869045,5.73600914 0.424084382,5.73600914 Z" id="Shape"></path>
                        <path d="M0.95418986,3.34600533 C0.95418986,3.60999786 1.14405891,3.82400609 1.37827424,3.82400609 L6.25524464,3.82400609 C6.48945998,3.82400609 6.67932902,3.60999786 6.67932902,3.34600533 C6.67932902,3.0820128 6.48945998,2.86800457 6.25524464,2.86800457 L1.37827424,2.86800457 C1.14405891,2.86800457 0.95418986,3.0820128 0.95418986,3.34600533 Z" id="Shape"></path>
                    </g>
                </g>
            </g>
        </g>
    </g>
</svg>