<?xml version="1.0" encoding="UTF-8"?>
<svg width="19px" height="16px" viewBox="0 0 19 16" version="1.1" xmlns="http://www.w3.org/2000/svg" xmlns:xlink="http://www.w3.org/1999/xlink">
    <!-- Generator: Sketch 53 (72520) - https://sketchapp.com -->
    <title>Shape</title>
    <desc>Created with Sketch.</desc>
    <g id="Julia-Allert-Site" stroke="none" stroke-width="1" fill="none" fill-rule="evenodd">
        <g id="Cats_one" transform="translate(-1206.000000, -99.000000)" fill="#000000" fill-rule="nonzero">
            <g id="Group-4" transform="translate(1119.000000, 93.000000)">
                <g id="noun_filters_1701541" transform="translate(87.000000, 6.000000)">
                    <path d="M14.9432432,3.45371122 C15.0972973,3.24772427 15.2513514,2.99024057 15.3027027,2.68126013 L18.4864865,2.68126013 C18.7945946,2.68126013 19,2.47527318 19,2.16629274 C19,1.8573123 18.7945946,1.65132535 18.4864865,1.65132535 L15.3027027,1.65132535 C15.2,1.18785469 14.8918919,0.72438404 14.4810811,0.415403605 C13.5054054,-0.305550745 12.1702703,-0.0480670489 11.5027027,0.878874258 C11.3486486,1.08486122 11.2459459,1.34234491 11.1432432,1.65132535 L0.513513514,1.65132535 C0.205405405,1.65132535 0,1.8573123 0,2.16629274 C0,2.47527318 0.205405405,2.68126013 0.513513514,2.68126013 L11.1432432,2.68126013 C11.2459459,3.14473079 11.5540541,3.60820144 11.9648649,3.91718188 C12.8891892,4.63813623 14.2756757,4.43214927 14.9432432,3.45371122 Z M12.5810811,3.09323405 C12.3243243,2.93874383 12.1702703,2.68126013 12.1189189,2.3722797 C12.0675676,2.06329926 12.1189189,1.80581557 12.3243243,1.54833187 C12.6837838,1.03336448 13.4027027,0.930370998 13.8648649,1.29084817 C14.1216216,1.44533839 14.2756757,1.70282209 14.327027,2.01180252 C14.327027,2.06329926 14.327027,2.114796 14.327027,2.16629274 C14.327027,2.42377644 14.2756757,2.62976339 14.1216216,2.83575035 C13.7621622,3.35071774 13.0432432,3.45371122 12.5810811,3.09323405 Z M7.34324324,9.3243395 C7.4972973,9.11835254 7.65135135,8.86086885 7.7027027,8.55188841 L18.4864865,8.55188841 C18.7945946,8.55188841 19,8.34590145 19,8.03692102 C19,7.72794058 18.7945946,7.52195363 18.4864865,7.52195363 L7.7027027,7.52195363 C7.6,7.05848297 7.29189189,6.59501232 6.88108108,6.28603188 C5.90540541,5.56507753 4.57027027,5.82256123 3.9027027,6.74950254 C3.74864865,6.95548949 3.64594595,7.21297319 3.54324324,7.52195363 L0.513513514,7.52195363 C0.205405405,7.52195363 0,7.72794058 0,8.03692102 C0,8.34590145 0.205405405,8.55188841 0.513513514,8.55188841 L3.54324324,8.55188841 C3.64594595,9.01535907 3.95405405,9.47882972 4.36486486,9.78781015 C5.28918919,10.4572678 6.62432432,10.2512808 7.34324324,9.3243395 Z M4.98108108,8.91236559 C4.72432432,8.75787537 4.57027027,8.50039167 4.51891892,8.19141124 C4.46756757,7.8824308 4.51891892,7.6249471 4.72432432,7.36746341 C5.08378378,6.85249602 5.8027027,6.74950254 6.26486486,7.10997971 C6.52162162,7.26446993 6.67567568,7.52195363 6.72702703,7.83093406 C6.72702703,7.8824308 6.72702703,7.93392754 6.72702703,7.98542428 C6.72702703,7.98542428 6.72702703,7.98542428 6.72702703,7.98542428 C6.72702703,7.98542428 6.72702703,7.98542428 6.72702703,7.98542428 C6.72702703,8.24290798 6.67567568,8.44889493 6.52162162,8.65488189 C6.16216216,9.16984928 5.44324324,9.27284276 4.98108108,8.91236559 Z M12.9405405,15.143471 C13.0945946,14.9374841 13.2486486,14.6800004 13.3,14.37102 L18.4864865,14.37102 C18.7945946,14.37102 19,14.165033 19,13.8560526 C19,13.5470721 18.7945946,13.3410852 18.4864865,13.3410852 L13.3,13.3410852 C13.1972973,12.8776145 12.8891892,12.4141439 12.4783784,12.1051634 C12.0162162,11.7446862 11.4513514,11.6416928 10.8864865,11.6931895 C10.3216216,11.796183 9.80810811,12.1051634 9.5,12.5686341 C9.34594595,12.8261178 9.24324324,13.0321047 9.14054054,13.3410852 L0.513513514,13.3410852 C0.205405405,13.3410852 0,13.5470721 0,13.8560526 C0,14.165033 0.205405405,14.37102 0.513513514,14.37102 L9.19189189,14.37102 C9.29459459,14.8344906 9.6027027,15.2979613 10.0135135,15.6069417 C10.9378378,16.2763993 12.272973,16.0704123 12.9405405,15.143471 Z M10.5783784,14.7829939 C10.3216216,14.5770069 10.1675676,14.3195232 10.1162162,14.0105428 C10.1162162,13.959046 10.1162162,13.9075493 10.1162162,13.9075493 C10.1162162,13.8560526 10.1162162,13.8045558 10.1162162,13.8045558 C10.1162162,13.5985689 10.2189189,13.4440786 10.3216216,13.2895884 C10.4756757,13.0321047 10.7324324,12.8776145 11.0405405,12.8261178 C11.3486486,12.774621 11.6054054,12.8776145 11.8621622,13.0321047 C12.1189189,13.1865949 12.272973,13.4440786 12.3243243,13.7530591 C12.3243243,13.8045558 12.3243243,13.8560526 12.3243243,13.9075493 C12.3243243,13.9075493 12.3243243,13.9075493 12.3243243,13.9075493 C12.3243243,13.9075493 12.3243243,13.9075493 12.3243243,13.9075493 C12.3243243,14.165033 12.272973,14.37102 12.1189189,14.5770069 C11.7594595,15.0404776 11.0918919,15.143471 10.5783784,14.7829939 Z" id="Shape"></path>
                </g>
            </g>
        </g>
    </g>
</svg>