<?xml version="1.0" encoding="UTF-8"?>
<svg width="30px" height="19px" viewBox="0 0 30 19" version="1.1" xmlns="http://www.w3.org/2000/svg" xmlns:xlink="http://www.w3.org/1999/xlink">
    <!-- Generator: Sketch 53 (72520) - https://sketchapp.com -->
    <title>google-plus</title>
    <desc>Created with Sketch.</desc>
    <g id="Julia-Allert-Site" stroke="none" stroke-width="1" fill="none" fill-rule="evenodd">
        <g id="cart-logged-user.Shipping-details" transform="translate(-817.000000, -973.000000)" fill="#000000" fill-rule="nonzero">
            <g id="pop-up-Cumpără-in-3-clicuri" transform="translate(2.000000, -8.000000)">
                <g id="Qiuck-register" transform="translate(557.000000, 928.000000)">
                    <g id="google-plus" transform="translate(258.000000, 53.000000)">
                        <polygon id="Path" points="26.4 7 26.4 3 24.6 3 24.6 7 21 7 21 9 24.6 9 24.6 13 26.4 13 26.4 9 30 9 30 7"></polygon>
                        <path d="M9.5,7.6 L9.5,11.4 L14.8751,11.4 C14.0904,13.6116 11.9776,15.2 9.5,15.2 C6.3574,15.2 3.8,12.6426 3.8,9.5 C3.8,6.3574 6.3574,3.8 9.5,3.8 C10.8623,3.8 12.1733,4.2883 13.1917,5.1756 L15.6883,2.3104 C13.9783,0.8208 11.7819,0 9.5,0 C4.2617,0 0,4.2617 0,9.5 C0,14.7383 4.2617,19 9.5,19 C14.7383,19 19,14.7383 19,9.5 L19,7.6 L9.5,7.6 Z" id="Path"></path>
                    </g>
                </g>
            </g>
        </g>
    </g>
</svg>