<?xml version="1.0" encoding="UTF-8"?>
<svg width="24px" height="24px" viewBox="0 0 24 24" version="1.1" xmlns="http://www.w3.org/2000/svg" xmlns:xlink="http://www.w3.org/1999/xlink">
    <!-- Generator: Sketch 53 (72520) - https://sketchapp.com -->
    <title>Shape</title>
    <desc>Created with Sketch.</desc>
    <g id="Julia-Allert-Site" stroke="none" stroke-width="1" fill="none" fill-rule="evenodd">
        <g id="home-page-Caută" transform="translate(-1407.000000, -600.000000)" fill="#000000" fill-rule="nonzero">
            <g id="Group-4" transform="translate(1119.000000, 93.000000)">
                <g id="SOCIAL-ICON" transform="translate(282.000000, 102.000000)">
                    <path d="M9.08051831,405 L26.9197281,405 C28.6138777,405 30,406.254274 30,408.08024 L30,425.91976 C30,427.745726 28.6138777,429 26.9197281,429 L9.08051831,429 C7.38587593,429 6,427.745726 6,425.91976 L6,408.08024 C6,406.254274 7.38587593,405 9.08051831,405 L9.08051831,405 Z M23.8865291,408 C23.398665,408 23,408.409447 23,408.910459 L23,411.089541 C23,411.590345 23.398665,412 23.8865291,412 L26.1130663,412 C26.6009304,412 27,411.590345 27,411.089541 L27,408.910459 C27,408.409447 26.6009304,408 26.1130663,408 L23.8865291,408 L23.8865291,408 Z M26.9995236,415 L24.9576529,415 C25.150835,415.647102 25.2554059,416.332571 25.2554059,417.041743 C25.2554059,421.0006 22.0263346,424.209717 18.0438292,424.209717 C14.0615621,424.209717 10.8329672,421.0006 10.8329672,417.041743 C10.8329672,416.332082 10.9372998,415.646858 11.1307202,415 L9,415 L9,425.053784 C9,425.574056 9.41494852,426 9.92231956,426 L26.0776804,426 C26.5850515,426 27,425.574301 27,425.053784 L27,415 L26.9995236,415 Z M17.9997444,412 C15.2386381,412 13,414.238432 13,417 C13,419.761568 15.2386381,422 17.9997444,422 C20.7611063,422 23,419.761568 23,417 C23,414.238432 20.7613619,412 17.9997444,412 Z" id="Shape"></path>
                </g>
            </g>
        </g>
    </g>
</svg>