<?xml version="1.0" encoding="UTF-8"?>
<svg width="41px" height="39px" viewBox="0 0 41 39" version="1.1" xmlns="http://www.w3.org/2000/svg" xmlns:xlink="http://www.w3.org/1999/xlink">
    <!-- Generator: Sketch 53 (72520) - https://sketchapp.com -->
    <title>JA_1.2</title>
    <desc>Created with Sketch.</desc>
    <g id="Julia-Allert-Site" stroke="none" stroke-width="1" fill="none" fill-rule="evenodd">
        <g id="Home-page-2" transform="translate(-188.000000, -260.000000)" fill-rule="nonzero">
            <g id="JA_1.2" transform="translate(188.000000, 260.000000)">
                <polygon id="Shape" fill="#000000" points="20.5 0 26.8288591 12.8470588 41 14.9117647 30.7270694 24.8682353 33.1577181 39 20.5 32.3470588 7.84228188 39 10.2270694 24.8682353 0 14.9117647 14.1711409 12.8470588"></polygon>
                <g id="Group" transform="translate(8.000000, 10.000000)" fill="#D9CEB4">
                    <path d="M16.8636364,0.181818182 L8.72727273,17.5909091 L12.9545455,19.4090909 L13.9090909,16.9545455 L19.8181818,16.9545455 L20.7727273,19.4090909 L25,17.5909091 L16.8636364,0.181818182 Z M15.3181818,13.4090909 L16.8636364,9.45454545 L18.4090909,13.4090909 L15.3181818,13.4090909 Z" id="Shape"></path>
                    <path d="M0.227272727,1.54545455 L0.727272727,5.04545455 L2.72727273,5.04545455 L2.72727273,16.0454545 C2.72727273,19.3181818 0.318181818,20.6818182 0.181818182,20.7272727 L2.36363636,24.7727273 C4.63636364,23.5454545 7.27272727,20.5 7.27272727,16.0454545 L7.27272727,1.5 L0.227272727,1.5 L0.227272727,1.54545455 Z" id="Shape"></path>
                </g>
            </g>
        </g>
    </g>
</svg>