<?xml version="1.0" encoding="UTF-8"?>
<svg width="20px" height="20px" viewBox="0 0 20 20" version="1.1" xmlns="http://www.w3.org/2000/svg" xmlns:xlink="http://www.w3.org/1999/xlink">
    <!-- Generator: Sketch 53 (72520) - https://sketchapp.com -->
    <title>Shape</title>
    <desc>Created with Sketch.</desc>
    <g id="Julia-Allert-Site" stroke="none" stroke-width="1" fill="none" fill-rule="evenodd">
        <g id="Artboard" transform="translate(-41.000000, -492.000000)" fill="#000000" fill-rule="nonzero">
            <g id="Social-icons" transform="translate(19.000000, 246.000000)">
                <g id="if_online_social_media_linked_in_734383" transform="translate(0.000000, 225.000000)">
                    <path d="M41.8525098,40.101551 L41.8525098,32.712102 C41.8525098,28.7530816 39.7533922,26.9108367 36.9533725,26.9108367 C34.6939804,26.9108367 33.682098,28.1618776 33.1187451,29.0396531 L33.1187451,27.2130612 L28.863098,27.2130612 C28.9193137,28.4231633 28.863098,40.101551 28.863098,40.101551 L33.1187451,40.101551 L33.1187451,32.903551 C33.1187451,32.519449 33.1462549,32.1341429 33.2586863,31.8596122 C33.5660784,31.0902041 34.2657843,30.293102 35.4415294,30.293102 C36.9820784,30.293102 37.5980588,31.4743061 37.5980588,33.2069796 L37.5980588,40.1027551 L41.8525098,40.101551 L41.8525098,40.101551 Z M24.379,25.453898 C25.8621373,25.453898 26.7867059,24.4629388 26.7867059,23.2263469 C26.7591961,21.9620612 25.8621373,21 24.4065098,21 C22.9508824,21 22,21.9608571 22,23.2251429 C22,24.4629388 22.9233725,25.4526939 24.3526863,25.4526939 L24.379,25.4526939 L24.379,25.453898 Z M26.5068235,40.101551 L26.5068235,27.2130612 L22.2523725,27.2130612 L22.2523725,40.101551 L26.5068235,40.101551 L26.5068235,40.101551 Z" id="Shape"></path>
                </g>
            </g>
        </g>
    </g>
</svg>