<?xml version="1.0" encoding="UTF-8"?>
<svg width="15px" height="15px" viewBox="0 0 15 15" version="1.1" xmlns="http://www.w3.org/2000/svg" xmlns:xlink="http://www.w3.org/1999/xlink">
    <!-- Generator: Sketch 53 (72520) - https://sketchapp.com -->
    <title>instagram-social-network-logo-of-photo-camera</title>
    <desc>Created with Sketch.</desc>
    <g id="Symbols" stroke="none" stroke-width="1" fill="none" fill-rule="evenodd">
        <g id="Footer" transform="translate(-688.000000, -153.000000)" fill="#FFFFFF" fill-rule="nonzero">
            <g id="Group-5" transform="translate(588.000000, 151.000000)">
                <g id="instagram-social-network-logo-of-photo-camera" transform="translate(100.000000, 2.000000)">
                    <path d="M1.92532394,0 L13.0748301,0 C14.1336735,0 15,0.783921146 15,1.92515016 L15,13.0748498 C15,14.2160789 14.1336735,15 13.0748301,15 L1.92532394,15 C0.866172454,15 0,14.2160789 0,13.0748498 L0,1.92515016 C0,0.783921146 0.866172454,0 1.92532394,0 L1.92532394,0 Z M10.9269565,1.66656399 C10.5554757,1.66656399 10.2519149,1.97027568 10.2519149,2.34190667 L10.2519149,3.95826274 C10.2519149,4.32973972 10.5554757,4.63360542 10.9269565,4.63360542 L12.6223381,4.63360542 C12.9938189,4.63360542 13.2976877,4.32973972 13.2976877,3.95826274 L13.2976877,2.34190667 C13.2976877,1.97027568 12.9938189,1.66656399 12.6223381,1.66656399 L10.9269565,1.66656399 L10.9269565,1.66656399 Z M13.3047724,6.34344679 L11.9845678,6.34344679 C12.1094729,6.7512706 12.1770848,7.1832743 12.1770848,7.63021716 C12.1770848,10.1252118 10.0892765,12.1476975 7.51432326,12.1476975 C4.939524,12.1476975 2.85202374,10.1252118 2.85202374,7.63021716 C2.85202374,7.18296627 2.91948169,6.75111659 3.04454073,6.34344679 L1.66688913,6.34344679 L1.66688913,12.679655 C1.66688913,13.0075466 1.93518081,13.2759895 2.26322977,13.2759895 L12.7087398,13.2759895 C13.0367887,13.2759895 13.3050804,13.0077006 13.3050804,12.679655 L13.3050804,6.34344679 L13.3047724,6.34344679 Z M7.51416925,4.54843678 C5.85051441,4.54843678 4.50166335,5.85522871 4.50166335,7.46742646 C4.50166335,9.07962421 5.85051441,10.3864161 7.51416925,10.3864161 C9.17797811,10.3864161 10.5269832,9.07962421 10.5269832,7.46742646 C10.5269832,5.85522871 9.17813212,4.54843678 7.51416925,4.54843678 Z" id="Shape"></path>
                </g>
            </g>
        </g>
    </g>
</svg>