<?xml version="1.0" encoding="UTF-8"?>
<svg width="37px" height="23px" viewBox="0 0 37 23" version="1.1" xmlns="http://www.w3.org/2000/svg" xmlns:xlink="http://www.w3.org/1999/xlink">
    <!-- Generator: Sketch 53 (72520) - https://sketchapp.com -->
    <title>cardmastercard</title>
    <desc>Created with Sketch.</desc>
    <g id="Julia-Allert-Site" stroke="none" stroke-width="1" fill="none" fill-rule="evenodd">
        <g id="cart-logged-user.Steps3" transform="translate(-258.000000, -1284.000000)" fill="#000000" fill-rule="nonzero">
            <g id="Payment-Method" transform="translate(119.000000, 1168.000000)">
                <g id="Group-6" transform="translate(1.000000, 0.000000)">
                    <g id="Card" transform="translate(0.000000, 72.000000)">
                        <g id="cardmastercard" transform="translate(138.000000, 43.000000)">
                            <path d="M10.0879161,11.4285714 C9.35201524,11.4285714 8.78791734,11.6156544 8.78791734,11.6156544 L8.63211224,12.3474792 C8.63211224,12.3474792 9.09744085,12.1978128 9.80204156,12.1978128 C10.2019877,12.1978128 10.4941222,12.2330284 10.4941222,12.4899924 C10.4941222,12.6462618 10.4586487,12.7040374 10.4586487,12.7040374 C10.4586487,12.7040374 10.1435608,12.6836784 9.99749348,12.6836784 C9.06892295,12.6836784 8.09375,12.9962171 8.09375,13.9420868 C8.09375,14.6871174 8.73296822,14.8571429 9.13013209,14.8571429 C9.88759525,14.8571429 10.2145077,14.4686705 10.2312011,14.46757 L10.1957276,14.792214 L11.1409916,14.792214 L11.5625,12.4536763 C11.5618044,11.4604856 10.467691,11.4285714 10.0879161,11.4285714 Z M9.55790054,14.1456771 C9.22472804,14.1456771 9.13778324,13.944838 9.13778324,13.8248848 C9.13778324,13.5926818 9.29706612,13.3131577 10.0837427,13.3131577 C10.2673702,13.313708 10.2868458,13.3285646 10.3174504,13.3329665 C10.3383171,13.47603 10.2047699,14.1456771 9.55790054,14.1456771 Z" id="Shape"></path>
                            <path d="M13.2071821,12.2118225 C13.3232081,12.2118225 13.770737,12.2500434 13.770737,12.2500434 L13.875,11.4955965 C13.875,11.4955965 13.5852023,11.4285714 13.1136127,11.4285714 C12.5030058,11.4285714 11.8838439,11.6811616 11.8838439,12.544732 C11.8838439,13.5240728 12.9168497,13.4243662 12.9168497,13.8375948 C12.9168497,14.112342 12.6281214,14.135053 12.4056936,14.135053 C12.0201879,14.135053 11.6737139,13.9987872 11.6726445,14.0043265 L11.5625,14.7526803 C11.5822832,14.7582195 11.7961561,14.8568183 12.4885694,14.8568183 C12.674104,14.8568183 13.7365173,14.9066717 13.7365173,13.7705698 C13.7365173,12.7081401 12.753237,12.918078 12.753237,12.4910012 C12.753237,12.2782936 12.9131069,12.2118225 13.2071821,12.2118225 Z" id="Path"></path>
                            <path d="M15.42295,11.8225729 L16.0389632,11.8225729 L16.1875,10.8737979 L15.6069245,10.8737979 L15.7253016,10.2857143 L14.5618887,10.2857143 C14.5362529,10.3072774 13.875,13.602506 13.875,14.0024029 C13.875,14.5976742 14.260291,14.8616585 14.8024128,14.8570845 C15.2269115,14.8544708 15.5579149,14.7525363 15.674784,14.7244389 L15.8203049,13.8671437 C15.7403815,13.8671437 15.6235124,13.8972013 15.5202152,13.8972013 C15.1153203,13.8972013 15.0708347,13.7096679 15.0964705,13.571795 L15.42295,11.8225729 Z" id="Path"></path>
                            <path d="M18.8612546,5.71428571 L16.9168342,5.71428571 C16.6556012,6.08247423 16.409901,6.4742268 16.1875,6.85714286 L19.65625,6.85714286 C19.4154921,6.45802651 19.1493169,6.07658321 18.8612546,5.71428571 Z" id="Path"></path>
                            <path d="M33.9498125,17.6068571 C33.915125,17.5554286 33.8862188,17.5165714 33.8630938,17.4925714 C33.850375,17.4811429 33.8341875,17.4685714 33.813375,17.4628571 C33.8630938,17.4594286 33.9047188,17.4411429 33.9347813,17.4102857 C33.9636875,17.3794286 33.979875,17.3428571 33.979875,17.3005714 C33.979875,17.2708571 33.970625,17.2422857 33.9532812,17.216 C33.9359375,17.1897143 33.9105,17.1702857 33.8792812,17.16 C33.850375,17.1485714 33.8006563,17.1428571 33.7324375,17.1428571 L33.53125,17.1428571 L33.53125,17.72 L33.6260625,17.72 L33.6260625,17.4754286 L33.6804062,17.4754286 C33.7127812,17.4754286 33.739375,17.4822857 33.7544063,17.496 C33.7786875,17.5154286 33.813375,17.56 33.8538437,17.6297143 L33.9047187,17.7211429 L34.0215,17.7211429 L33.9498125,17.6068571 Z M33.739375,17.3988571 L33.62375,17.3988571 L33.62375,17.2251429 L33.7324375,17.2251429 C33.7775313,17.2251429 33.8075938,17.2285714 33.8249375,17.2354286 C33.8434375,17.2422857 33.855,17.2525714 33.8654062,17.2651429 C33.8746563,17.2788571 33.8792812,17.2937143 33.8792812,17.3097143 C33.8792812,17.336 33.8700312,17.3588571 33.850375,17.3748571 C33.8307188,17.3897143 33.7925625,17.3988571 33.739375,17.3988571 Z" id="Shape"></path>
                            <path d="M20.451226,8 L16.6382269,8 C16.3946843,8.58798639 16.2330921,9.03247171 16.1875,9.14285714 L20.8125,9.14285714 C20.7080422,8.74988502 20.5880022,8.36942324 20.451226,8 Z" id="Path"></path>
                            <polygon id="Path" points="6.59262118 10.2857143 5.65840803 13.0911494 5.60988546 10.2857143 4.22668493 10.2857143 3.46875 14.8571429 4.38330843 14.8571429 4.96005146 11.4109986 5.04481242 14.8571429 5.69771746 14.8571429 6.91569555 11.4109986 6.37580511 14.8571429 7.34625664 14.8571429 8.09375 10.2857143"></polygon>
                            <path d="M26.277204,11.4285714 C25.5397654,11.4285714 24.9762511,11.6156544 24.9762511,11.6156544 L24.8197193,12.3474792 C24.8197193,12.3474792 25.2858361,12.1978128 25.9898812,12.1978128 C26.3899069,12.1978128 26.6827952,12.2330284 26.6827952,12.4899924 C26.6827952,12.6462618 26.6459233,12.7040374 26.6459233,12.7040374 C26.6459233,12.7040374 26.3314684,12.6836784 26.1839806,12.6836784 C25.2559212,12.6836784 24.28125,12.9962171 24.28125,13.9420868 C24.28125,14.6871174 24.921291,14.8571429 25.3178382,14.8571429 C26.0747562,14.8571429 26.4017337,14.4686705 26.4191261,14.46757 L26.3836456,14.792214 L27.3284018,14.792214 L27.749994,12.4536763 C27.7520811,11.4604856 26.6570544,11.4285714 26.277204,11.4285714 Z M25.7484745,14.1456771 C25.41454,14.1456771 25.3282736,13.944838 25.3282736,13.8248848 C25.3282736,13.5926818 25.4875882,13.3131577 26.2744212,13.3131577 C26.4573895,13.313708 26.476869,13.3285646 26.5081753,13.3329665 C26.5283505,13.47603 26.3940811,14.1456771 25.7484745,14.1456771 Z" id="Shape"></path>
                            <path d="M33.3855625,13.9828571 C33.3381562,13.896 33.2687812,13.8297143 33.1820625,13.784 C33.0965,13.7371429 33.008625,13.7142857 32.916125,13.7142857 C32.8270937,13.7154286 32.7380625,13.7382857 32.6501875,13.784 C32.5634687,13.8297143 32.4964062,13.896 32.4478437,13.9828571 C32.3992812,14.0685714 32.375,14.1577143 32.375,14.2502857 C32.375,14.3428571 32.3992812,14.4308571 32.4478437,14.5154286 C32.49525,14.6 32.5623125,14.6674286 32.647875,14.7154286 C32.7345937,14.7622857 32.823625,14.7862857 32.916125,14.7862857 C33.0109375,14.7862857 33.101125,14.7622857 33.1855312,14.7154286 C33.2710937,14.6674286 33.3381562,14.6 33.3855625,14.5154286 C33.4352813,14.4308571 33.45725,14.3428571 33.45725,14.2502857 C33.45725,14.1554286 33.434125,14.0662857 33.3855625,13.9828571 Z M33.3104062,14.4708571 C33.2710937,14.5417143 33.2155937,14.5954286 33.14275,14.6377143 C33.0710625,14.6765714 32.9970625,14.6971429 32.9195937,14.6971429 C32.8409687,14.6971429 32.7658125,14.6765714 32.6952812,14.6377143 C32.6224375,14.5977143 32.5680937,14.5428571 32.5264687,14.4708571 C32.4848437,14.3988571 32.4663437,14.3257143 32.4663437,14.2491429 C32.4663437,14.1725714 32.486,14.0982857 32.5287812,14.0262857 C32.56925,13.9554286 32.6235937,13.9005714 32.6975937,13.8605714 C32.7715937,13.8205714 32.8444375,13.8034286 32.9195937,13.8034286 C32.99475,13.8034286 33.06875,13.8217143 33.1392812,13.8605714 C33.2132812,13.9005714 33.267625,13.9542857 33.3080937,14.0262857 C33.3485625,14.0982857 33.3705312,14.1725714 33.3705312,14.2491429 C33.3705312,14.3257143 33.350875,14.4 33.3104062,14.4708571 Z" id="Shape"></path>
                            <path d="M32.7947187,14.1782857 C32.7611875,14.1245714 32.731125,14.0868571 32.7091562,14.064 C32.6952812,14.0514286 32.68025,14.0411429 32.6594375,14.0342857 C32.7091562,14.0308571 32.749625,14.0125714 32.7796875,13.9817143 C32.8085937,13.952 32.8259375,13.9131429 32.8259375,13.872 C32.8259375,13.8434286 32.8166875,13.8137143 32.7981875,13.7874286 C32.7796875,13.7622857 32.7554062,13.7428571 32.7265,13.7314286 C32.6975937,13.72 32.6467187,13.7142857 32.5785,13.7142857 L32.375,13.7142857 L32.375,14.2902857 L32.4698125,14.2902857 L32.4698125,14.0457143 L32.5241562,14.0457143 C32.5576875,14.0457143 32.5842812,14.0525714 32.6004687,14.0651429 C32.62475,14.0857143 32.657125,14.1291429 32.6999062,14.2011429 L32.749625,14.2914286 L32.8664062,14.2914286 L32.7947187,14.1782857 Z M32.5865937,13.9668571 L32.472125,13.9668571 L32.472125,13.792 L32.5785,13.792 C32.62475,13.792 32.6548125,13.7954286 32.6733125,13.8011429 C32.6883437,13.8091429 32.7022187,13.8171429 32.7114687,13.832 C32.721875,13.8468571 32.7265,13.8594286 32.7265,13.8788571 C32.7265,13.904 32.7160937,13.9257143 32.69875,13.9417143 C32.6767812,13.9611429 32.6409375,13.9668571 32.5865937,13.9668571 Z" id="Shape"></path>
                            <path d="M29.8800312,11.4285714 C29.4554995,11.4285714 29.1403261,11.9622695 29.1403261,11.9622695 L29.2251096,11.4715842 L28.3416412,11.4715842 L27.75,14.8571429 L28.7231668,14.8571429 C29.0002491,13.4105551 29.0506277,12.2373249 29.7086211,12.4518229 C29.8247376,11.8926567 29.9365535,11.6758949 30.0625,11.4398906 C30.0625,11.4404565 30.0035202,11.4285714 29.8800312,11.4285714 Z" id="Path"></path>
                            <path d="M31.4746605,10.2875593 L31.2809828,11.5575714 C31.2809828,11.5575714 30.9436463,11.063712 30.4143769,11.063712 C29.5913921,11.064327 28.90625,12.1129327 28.90625,13.3171379 C28.90625,14.0951356 29.2720856,14.8571429 30.0188789,14.8571429 C30.5568725,14.8571429 30.8546592,14.4604563 30.8546592,14.4604563 L30.815691,14.7993312 L31.6886947,14.7993312 L32.375,10.2857143 L31.4746605,10.2875593 Z M30.3364405,13.9346159 C30.0130628,13.9346159 29.8618429,13.6480175 29.8618429,13.1978244 C29.8618429,12.4616479 30.17417,11.9763987 30.5690864,11.9763987 C30.8913009,11.9770137 31.0570611,12.2113355 31.0570611,12.7636217 C31.0570611,13.2648613 30.8226704,13.9346159 30.3364405,13.9346159 Z" id="Shape"></path>
                            <path d="M36.0474858,1.14285714 L0.952514164,1.14285714 C0.425814448,1.14285714 0,1.5493812 0,2.05082331 L0,23.0920338 C0,23.5934759 0.425814448,24 0.952514164,24 L36.0474858,24 C36.5741856,24 37,23.5934759 37,23.0920338 L37,2.05082331 C37,1.5493812 36.5741856,1.14285714 36.0474858,1.14285714 Z M33.6779922,17.7404038 C33.650478,17.7878628 33.6131374,17.8240816 33.5646601,17.8496845 C33.5161827,17.8752873 33.465085,17.888401 33.4126771,17.888401 C33.3589589,17.888401 33.3078612,17.8752873 33.2593839,17.8496845 C33.2115616,17.8240816 33.1735659,17.7878628 33.1453966,17.7404038 C33.1185375,17.6948181 33.1047805,17.6461102 33.1047805,17.5955289 C33.1047805,17.5449475 33.1185375,17.496864 33.1460517,17.449405 C33.1729108,17.401946 33.2122167,17.3663517 33.2606941,17.3407488 C33.3098265,17.3163948 33.359614,17.3032812 33.412022,17.3032812 C33.4637748,17.3032812 33.5135623,17.3163948 33.5620397,17.3407488 C33.6111721,17.3663517 33.6498229,17.401946 33.676682,17.449405 C33.7041962,17.496864 33.7172982,17.545572 33.7172982,17.5955289 C33.7172982,17.6454857 33.7055064,17.6960671 33.6779922,17.7404038 Z M34.3645361,12.5717408 C34.3658463,17.5705504 30.1168732,21.6245507 24.8721494,21.6257996 C22.4194582,21.6264241 20.1829497,20.740314 18.4980347,19.2846956 C16.8131197,20.7378162 14.5811969,21.6233018 12.1324363,21.6233018 C6.89098796,21.6233018 2.63677408,17.568677 2.63677408,12.5717408 C2.63677408,7.59478731 6.8575779,3.55202735 12.071512,3.51955538 C12.0918201,3.51955538 12.1121282,3.51955538 12.1324363,3.51955538 C14.5811969,3.51955538 16.8137748,4.40504096 18.4986898,5.85816151 C20.1829497,4.4044165 22.4168378,3.51830646 24.8675637,3.517682 C30.1122875,3.51580862 34.3645361,7.56793549 34.3658463,12.5673696 C34.3645361,12.5686185 34.3645361,12.569243 34.3645361,12.5717408 Z" id="Shape"></path>
                            <path d="M17.34375,18.2857143 C17.69839,18.6911977 18.0738912,19.0779221 18.4887968,19.4285714 C18.4980684,19.4206349 18.5081127,19.4134199 18.5173843,19.4062049 C18.5173843,19.4062049 18.5166117,19.4062049 18.5166117,19.4054834 L18.5189296,19.4054834 C18.9268815,19.0584416 19.3077911,18.6847042 19.65625,18.2857143 L17.34375,18.2857143 L17.34375,18.2857143 Z" id="Path"></path>
                            <path d="M18.356324,13.4346854 C18.356324,13.4346854 18.5,12.8871652 18.5,12.6643245 C18.5,12.1074965 18.1418716,11.4285714 16.9429198,11.4285714 C15.8444705,11.4291189 15.03125,12.3445727 15.03125,13.3793859 C15.03125,14.5735274 16.049722,14.8571429 16.9181481,14.8571429 C17.7193366,14.8571429 18.0718029,14.7180727 18.0718029,14.7180727 L18.2643147,13.9033627 C18.2643147,13.9033627 17.6549301,14.1114204 17.1042899,14.1114204 C15.9315255,14.1114204 16.1367769,13.4346854 16.1367769,13.4346854 L18.356324,13.4346854 L18.356324,13.4346854 Z M16.9464586,12.1868869 C17.5629208,12.1868869 17.4489709,12.7229092 17.4489709,12.7656157 L16.2365716,12.7656157 C16.2365716,12.7103162 16.3512293,12.1868869 16.9464586,12.1868869 Z" id="Shape"></path>
                            <path d="M23.1795982,11.2257124 C23.6980615,11.2257124 24.1148134,11.4894142 24.1148134,11.4894142 L24.28125,10.5117444 C24.28125,10.5117444 23.6643779,10.2857143 23.1333659,10.2857143 C21.9570818,10.2857143 20.8125,11.2101654 20.8125,12.9460525 C20.8125,14.0971316 21.4300326,14.8571429 22.6466049,14.8571429 C22.9900455,14.8571429 23.5382295,14.7309726 23.5382295,14.7309726 L23.7205172,13.7240026 C23.7205172,13.7240026 23.2212074,13.9506307 22.8777668,13.9506307 C22.1538997,13.9500327 21.8639566,13.4501355 21.8639566,12.9143605 C21.8639566,11.8242736 22.4861124,11.2257124 23.1795982,11.2257124 Z" id="Path"></path>
                            <path d="M16.1875,16 C16.3571442,16.3969072 16.5544991,16.7746686 16.7660474,17.1428571 L20.2420631,17.1428571 C20.4529355,16.7761414 20.6428558,16.3946981 20.8125,16 L16.1875,16 Z" id="Path"></path>
                            <path d="M20.6293195,11.428651 C20.2045621,11.428651 19.8898359,11.9623367 19.8898359,11.9623367 L19.9752791,11.4716628 L19.0919557,11.4716628 L18.5,14.8571429 L19.4736842,14.8571429 C19.7496843,13.4111546 19.8013191,12.2373857 20.4596624,12.4518787 C20.5752259,11.8921596 20.6864866,11.6754028 20.8125,11.438838 C20.8125,11.438838 20.7534888,11.4275191 20.6293195,11.428651 Z" id="Path"></path>
                        </g>
                    </g>
                </g>
            </g>
        </g>
    </g>
</svg>