<?xml version="1.0" encoding="UTF-8"?>
<svg width="21px" height="27px" viewBox="0 0 21 27" version="1.1" xmlns="http://www.w3.org/2000/svg" xmlns:xlink="http://www.w3.org/1999/xlink">
    <!-- Generator: Sketch 53 (72520) - https://sketchapp.com -->
    <title>Shape</title>
    <desc>Created with Sketch.</desc>
    <g id="Julia-Allert-Site" stroke="none" stroke-width="1" fill="none" fill-rule="evenodd">
        <g id="Artboard" transform="translate(-38.000000, -265.000000)" fill="#000000" fill-rule="nonzero">
            <g id="Social-icons" transform="translate(19.000000, 246.000000)">
                <g id="if_pinterest_online_social_media_734372">
                    <path d="M39.4705882,28.0828144 C39.4705882,34.0718052 36.1801582,38.5474766 31.3309027,38.5474766 C29.7009329,38.5474766 28.1700572,37.6564567 27.645367,36.6432912 C27.645367,36.6432912 26.7687659,40.161084 26.5845526,40.8399563 C25.9315484,43.2391527 24.0093782,45.6396349 23.8607371,45.8363536 C23.7565614,45.9726423 23.5266124,45.9302128 23.5024741,45.7489231 C23.4605497,45.4429162 22.9714317,42.4162772 23.5482098,39.9463649 C23.8378693,38.7069087 25.4881661,31.6263221 25.4881661,31.6263221 C25.4881661,31.6263221 25.0066707,30.6517289 25.0066707,29.210411 C25.0066707,26.9475033 26.3025158,25.258037 27.9159699,25.258037 C29.2880411,25.258037 29.9499384,26.2994889 29.9499384,27.549231 C29.9499384,28.9455479 29.0720669,31.0335945 28.6185212,32.967352 C28.2399311,34.5873882 29.4214369,35.909132 30.9993188,35.909132 C33.8578006,35.909132 35.7825116,32.1933347 35.7825116,27.7909507 C35.7825116,24.4454475 33.5567072,21.9395344 29.5052857,21.9395344 C24.9304445,21.9395344 22.078315,25.39304 22.078315,29.2515548 C22.078315,30.5822987 22.4670685,31.5208911 23.0743371,32.2460502 C23.3525626,32.5803434 23.3919461,32.7140606 23.2903112,33.097212 C23.2166259,33.3787898 23.0527396,34.0538048 22.9815952,34.3225251 C22.8812307,34.7095337 22.5712443,34.8471082 22.226956,34.7043908 C20.1193022,33.8339428 19.1372549,31.496462 19.1372549,28.8709748 C19.1372549,24.5341637 22.7516462,19.3333333 29.919448,19.3333333 C35.6808767,19.3359048 39.4705882,23.5531418 39.4705882,28.0828144 Z" id="Shape"></path>
                </g>
            </g>
        </g>
    </g>
</svg>