<?xml version="1.0" encoding="UTF-8"?>
<svg width="15px" height="15px" viewBox="0 0 15 15" version="1.1" xmlns="http://www.w3.org/2000/svg" xmlns:xlink="http://www.w3.org/1999/xlink">
    <!-- Generator: Sketch 53 (72520) - https://sketchapp.com -->
    <title>Shape Copy 3</title>
    <desc>Created with Sketch.</desc>
    <g id="Symbols" stroke="none" stroke-width="1" fill="none" fill-rule="evenodd">
        <g id="Footer-Mobile" transform="translate(-330.000000, -91.000000)" fill="#000000" fill-rule="nonzero">
            <g id="Group-3" transform="translate(14.000000, 14.000000)">
                <path d="M323.5,77 C323.22385,77 323,77.2238574 323,77.4999997 L323,84.0000053 L316.5,84.0000053 C316.22385,84.0000053 316,84.2238552 316,84.500005 C316,84.7761548 316.22385,85.0000047 316.5,85.0000047 L323,85.0000047 L323,91.5000003 C323,91.7761501 323.22385,92 323.5,92 C323.77615,92 324,91.7761501 324,91.5000003 L324,85.0000047 L330.5,85.0000047 C330.77615,85.0000047 331,84.7761548 331,84.500005 C331,84.2238552 330.77615,84.0000053 330.5,84.0000053 L324,84.0000053 L324,77.4999997 C324,77.2238574 323.77615,77 323.5,77 Z" id="Shape-Copy-3"></path>
            </g>
        </g>
    </g>
</svg>