<?xml version="1.0" encoding="UTF-8"?>
<svg width="15px" height="15px" viewBox="0 0 15 15" version="1.1" xmlns="http://www.w3.org/2000/svg" xmlns:xlink="http://www.w3.org/1999/xlink">
    <!-- Generator: Sketch 53 (72520) - https://sketchapp.com -->
    <title>Shape</title>
    <desc>Created with Sketch.</desc>
    <g id="Symbols" stroke="none" stroke-width="1" fill="none" fill-rule="evenodd">
        <g id="Footer-Mobile" transform="translate(-330.000000, -14.000000)" fill="#FFFFFF" fill-rule="nonzero">
            <g id="Group-3" transform="translate(14.000000, 14.000000)">
                <path d="M323.5,0 C323.22385,0 323,0.223857351 323,0.499999667 L323,7.00000533 L316.5,7.00000533 C316.22385,7.00000533 316,7.22385518 316,7.500005 C316,7.77615482 316.22385,8.00000467 316.5,8.00000467 L323,8.00000467 L323,14.5000003 C323,14.7761501 323.22385,15 323.5,15 C323.77615,15 324,14.7761501 324,14.5000003 L324,8.00000467 L330.5,8.00000467 C330.77615,8.00000467 331,7.77615482 331,7.500005 C331,7.22385518 330.77615,7.00000533 330.5,7.00000533 L324,7.00000533 L324,0.499999667 C324,0.223857351 323.77615,0 323.5,0 Z" id="Shape"></path>
            </g>
        </g>
    </g>
</svg>