<?xml version="1.0" encoding="UTF-8"?>
<svg width="37px" height="24px" viewBox="0 0 37 24" version="1.1" xmlns="http://www.w3.org/2000/svg" xmlns:xlink="http://www.w3.org/1999/xlink">
    <!-- Generator: Sketch 53 (72520) - https://sketchapp.com -->
    <title>noun_Arrow_1888042</title>
    <desc>Created with Sketch.</desc>
    <g id="Julia-Allert-Site" stroke="none" stroke-width="1" fill="none" fill-rule="evenodd">
        <g id="home-page-Caută" transform="translate(-830.000000, -966.000000)" fill="#000000" fill-rule="nonzero">
            <g id="noun_Arrow_1888042" transform="translate(848.500000, 978.000000) scale(-1, 1) translate(-848.500000, -978.000000) translate(830.000000, 966.000000)">
                <g id="Group">
                    <path d="M36.9999904,11.909773 C36.989233,11.5114378 36.8624806,11.2713081 36.7002219,11.0989622 L27.7927802,0.720577297 C27.3720765,0.15900973 26.4185728,0.0701448649 25.8225302,0.526151351 C25.2264191,0.982157838 25.1947636,1.83478703 25.6730228,2.34219892 L32.7604071,10.6124757 L1.37029911,10.6124757 C0.613443556,10.6124757 -7.12592593e-05,11.1932757 -7.12592593e-05,11.909773 C-7.12592593e-05,12.6262703 0.613443556,13.2070703 1.37029911,13.2070703 L32.7604071,13.2070703 L25.6730228,21.4773405 C25.1304932,21.9898378 25.2846599,22.8887351 25.8573376,23.3709405 C26.2981173,23.7421622 27.4729358,23.6238486 27.7927802,23.0989622 L36.7002219,12.7205838 C36.9321913,12.4517838 37.0028134,12.2519351 36.9999904,11.909773 Z" id="Shape"></path>
                </g>
            </g>
        </g>
    </g>
</svg>