<?xml version="1.0" encoding="UTF-8"?>
<svg width="32px" height="32px" viewBox="0 0 32 32" version="1.1" xmlns="http://www.w3.org/2000/svg" xmlns:xlink="http://www.w3.org/1999/xlink">
    <!-- Generator: Sketch 53 (72520) - https://sketchapp.com -->
    <title>Shape</title>
    <desc>Created with Sketch.</desc>
    <g id="Julia-Allert-Site" stroke="none" stroke-width="1" fill="none" fill-rule="evenodd">
        <g id="Home-page-2" transform="translate(-1149.000000, -29.000000)" fill="#000000" fill-rule="nonzero">
            <g id="HEader-menu" transform="translate(-8.000000, -9.000000)">
                <g id="noun_Search_929175" transform="translate(1157.000000, 38.000000)">
                    <path d="M32,30.4284821 L23.4735063,21.9019885 C27.8954605,16.6781638 27.6480474,8.82353758 22.723489,3.89860876 C20.2086159,1.38447649 16.865946,0 13.3103081,0 C9.755411,0 6.41274104,1.38447649 3.89897914,3.89823839 C1.38447649,6.41237066 0,9.755411 0,13.3103081 C0,16.865946 1.38447649,20.2082456 3.89897914,22.7223778 C6.41274104,25.2365101 9.75578138,26.6209866 13.3103081,26.6209866 C16.492604,26.6209866 19.5019329,25.5087386 21.9019885,23.4735063 L30.4284821,32 L32,30.4284821 Z M13.3103081,24.3990833 C10.3487581,24.3990833 7.56424917,23.2457233 5.47012662,21.15086 C3.37526332,19.0567374 2.22190328,16.2722285 2.22190328,13.3103081 C2.22190328,10.3487581 3.37489294,7.56387879 5.47012662,5.46975624 C7.56424917,3.3756337 10.3487581,2.22190328 13.3103081,2.22190328 C16.2725989,2.22190328 19.0571078,3.37526332 21.1519711,5.46975624 C25.4750341,9.79318966 25.4750341,16.8277969 21.1519711,21.15086 C19.0571078,23.2457233 16.2725989,24.3990833 13.3103081,24.3990833 Z" id="Shape"></path>
                </g>
            </g>
        </g>
    </g>
</svg>