<?xml version="1.0" encoding="UTF-8"?>
<svg width="20px" height="20px" viewBox="0 0 20 20" version="1.1" xmlns="http://www.w3.org/2000/svg" xmlns:xlink="http://www.w3.org/1999/xlink">
    <!-- Generator: Sketch 53 (72520) - https://sketchapp.com -->
    <title>Shape</title>
    <desc>Created with Sketch.</desc>
    <g id="Julia-Allert-Site" stroke="none" stroke-width="1" fill="none" fill-rule="evenodd">
        <g id="COLLECTION_ONE-Select-size" transform="translate(-1139.000000, -2483.000000)" fill="#000000" fill-rule="nonzero">
            <g id="Size-deschis" transform="translate(1135.000000, 2481.000000)">
                <g id="Language-Copy-2">
                    <g id="noun_Ruler_549827" transform="translate(4.874545, 2.272356)">
                        <path d="M15.7503681,0.247095663 C15.518745,0.0115524489 15.1481481,0.0115524489 14.916525,0.247095663 L12.4613206,2.74385373 C12.4613206,2.74385373 12.4613206,2.74385373 12.4613206,2.74385373 L12.4613206,2.74385373 L5.09570731,10.2341279 C5.09570731,10.2341279 5.09570731,10.2341279 5.09570731,10.2341279 C5.09570731,10.2341279 5.09570731,10.2341279 5.09570731,10.2341279 L0.185298448,15.2276441 C0.0926492239,15.3218614 0,15.5102959 0,15.6516219 C0,15.7929478 0.0463246119,15.9342737 0.185298448,16.0755997 L3.15007361,19.0905528 C3.24272284,19.1847701 3.42802128,19.2789874 3.56699512,19.2789874 C3.70596896,19.2789874 3.84494279,19.2318787 3.98391663,19.0905528 L18.7151432,4.11000438 C18.9467663,3.87446116 18.9467663,3.49759202 18.7151432,3.2620488 L15.7503681,0.247095663 Z M3.56699512,17.8186194 L1.43606297,15.6516219 L3.05742439,14.0028194 L4.12289046,15.0863182 C4.21553969,15.1805354 4.40083813,15.2747527 4.53981197,15.2747527 C4.67878581,15.2747527 4.81775964,15.2276441 4.95673348,15.0863182 C5.18835654,14.8507749 5.18835654,14.4739058 4.95673348,14.2383626 L3.8912674,13.1548638 L5.51262882,11.5060613 L6.5780949,12.5895601 C6.67074412,12.6837774 6.85604257,12.7779947 6.9950164,12.7779947 C7.13399024,12.7779947 7.27296408,12.730886 7.41193791,12.5895601 C7.64356097,12.3540169 7.64356097,11.9771477 7.41193791,11.7416045 L6.34647184,10.6581057 L7.96783325,9.00930323 L9.03329933,10.092802 C9.12594855,10.1870193 9.311247,10.2812366 9.45022084,10.2812366 C9.58919467,10.2812366 9.72816851,10.2341279 9.86714234,10.092802 C10.0987654,9.8572588 10.0987654,9.48038966 9.86714234,9.24484644 L8.80167627,8.16134766 L10.4230377,6.51254516 L11.4885038,7.59604395 C11.581153,7.69026123 11.7664514,7.78447852 11.9054253,7.78447852 C12.0443991,7.78447852 12.1833729,7.73736987 12.3223468,7.59604395 C12.5539698,7.36050073 12.5539698,6.98363159 12.3223468,6.74808837 L11.2568807,5.66458959 L12.8782421,4.01578709 L13.9437082,5.09928588 C14.0363574,5.19350316 14.2216559,5.28772045 14.3606297,5.28772045 C14.4996035,5.28772045 14.6385774,5.2406118 14.7775512,5.09928588 C15.0091743,4.86374266 15.0091743,4.48687352 14.7775512,4.2513303 L13.7120851,3.16783152 L15.3334466,1.51902902 L17.4643787,3.68602659 L3.56699512,17.8186194 Z" id="Shape"></path>
                    </g>
                </g>
            </g>
        </g>
    </g>
</svg>