<?xml version="1.0" encoding="UTF-8"?>
<svg width="22px" height="19px" viewBox="0 0 22 19" version="1.1" xmlns="http://www.w3.org/2000/svg" xmlns:xlink="http://www.w3.org/1999/xlink">
    <!-- Generator: Sketch 53 (72520) - https://sketchapp.com -->
    <title>Shape</title>
    <desc>Created with Sketch.</desc>
    <g id="Julia-Allert-Site" stroke="none" stroke-width="1" fill="none" fill-rule="evenodd">
        <g id="Artboard" transform="translate(-39.000000, -565.000000)" fill="#000000" fill-rule="nonzero">
            <g id="Social-icons" transform="translate(19.000000, 246.000000)">
                <g id="if_online_social_media_twitter_734377" transform="translate(0.000000, 297.000000)">
                    <path d="M33.5260784,23.1664377 C31.6243137,23.8660627 30.4222549,25.6688961 30.5586078,27.6421044 L30.6040588,28.4033544 L29.8433529,28.3103127 C27.0744314,27.9526461 24.6547647,26.7406877 22.599902,24.7046461 L21.5951961,23.6944794 L21.3380392,24.4400211 C20.7902353,26.1026877 21.1406863,27.8596044 22.2817451,29.0413544 C22.890549,29.6938544 22.753,29.7868961 21.7040392,29.3990211 C21.3392353,29.2745627 21.0186863,29.1815211 20.9887843,29.2286461 C20.8823333,29.3373961 21.2471373,30.7511461 21.5365882,31.3118127 C21.9324902,32.0899794 22.7386471,32.8500211 23.6213529,33.3019377 L24.3677059,33.6596044 L23.4838039,33.6728961 C22.6321961,33.6728961 22.601098,33.6886044 22.6931961,34.0160627 C22.997,35.0262294 24.1990588,36.0992294 25.5386667,36.5656461 L26.4823725,36.8918961 L25.6606667,37.3897294 C24.4430588,38.1062711 23.012549,38.5098544 21.5820392,38.5388544 C20.8966863,38.5545627 20.3333333,38.6161877 20.3333333,38.6633127 C20.3333333,38.8179794 22.1908431,39.6879794 23.2697059,40.0311461 C26.5110784,41.0413127 30.3612549,40.6051044 33.2521765,38.8808127 C35.3070392,37.6531461 37.3607059,35.2123127 38.3199608,32.8488127 C38.8378627,31.5909377 39.3545686,29.2902711 39.3545686,28.1870627 C39.3545686,27.4717294 39.4000196,27.3786877 40.2516275,26.5243961 C40.7539804,26.0265627 41.2252353,25.4828127 41.3173333,25.3281461 C41.4704314,25.0321044 41.4536863,25.0321044 40.6786275,25.2967294 C39.3856667,25.7631461 39.2026667,25.7015211 39.8425686,25.0018961 C40.3138235,24.5040627 40.8771765,23.6026461 40.8771765,23.3392294 C40.8771765,23.2933127 40.6487255,23.3706461 40.3903725,23.5096044 C40.1164706,23.6654794 39.5076667,23.8986877 39.0507647,24.0376461 L38.2290588,24.3022711 L37.483902,23.7875211 C37.072451,23.5083961 36.4959412,23.1966461 36.1909412,23.1036044 C35.4134902,22.8861044 34.2269804,22.9175211 33.5260784,23.1664377 Z" id="Shape"></path>
                </g>
            </g>
        </g>
    </g>
</svg>