<?xml version="1.0" encoding="UTF-8"?>
<svg width="37px" height="23px" viewBox="0 0 37 23" version="1.1" xmlns="http://www.w3.org/2000/svg" xmlns:xlink="http://www.w3.org/1999/xlink">
    <!-- Generator: Sketch 53 (72520) - https://sketchapp.com -->
    <title>visa-pay-logo</title>
    <desc>Created with Sketch.</desc>
    <g id="Julia-Allert-Site" stroke="none" stroke-width="1" fill="none" fill-rule="evenodd">
        <g id="cart-logged-user.Steps3" transform="translate(-135.000000, -1284.000000)" fill="#000000" fill-rule="nonzero">
            <g id="Payment-Method" transform="translate(119.000000, 1168.000000)">
                <g id="Group-6" transform="translate(1.000000, 0.000000)">
                    <g id="Card" transform="translate(0.000000, 72.000000)">
                        <g id="visa-pay-logo" transform="translate(15.000000, 43.000000)">
                            <path d="M36.0474858,1.14285714 L0.952514164,1.14285714 C0.425814448,1.14285714 0,1.5493812 0,2.05082331 L0,23.0920338 C0,23.5934759 0.425814448,24 0.952514164,24 L36.0474858,24 C36.5741856,24 37,23.5934759 37,23.0920338 L37,2.05082331 C37,1.5493812 36.5741856,1.14285714 36.0474858,1.14285714 Z M2.86474858,8.05001932 L6.81368626,8.05001932 C7.34628187,8.06937761 7.77537181,8.23111298 7.92342422,8.77376952 L8.78225921,12.7109956 C7.9384915,10.6515235 5.90506374,8.93800274 2.83199363,8.22861514 L2.86474858,8.05001932 Z M7.64304178,17.0297673 L5.36198654,9.60118023 C7.00169972,10.6015666 8.3983711,12.1889463 8.89035057,13.2936176 L9.15632082,14.2109507 L11.6509384,8.13557046 L14.3499469,8.13557046 L10.3387748,17.0278939 L7.64304178,17.0297673 Z M16.3335871,17.0360119 L13.7865616,17.0360119 L15.3791076,8.12620355 L17.9274433,8.12620355 L16.3335871,17.0360119 Z M20.765988,17.1696465 C19.6241501,17.1584062 18.5242387,16.9429672 17.9280984,16.6938073 L18.2864377,14.6999036 L18.6146424,14.8416562 C19.451204,15.1744939 19.992971,15.3093775 21.0129603,15.3093775 C21.7447061,15.3093775 22.5288598,15.036488 22.5360659,14.4395034 C22.5406516,14.0492153 22.2078612,13.7707058 21.2160411,13.3335831 C20.2491147,12.9077008 18.969051,12.1933175 18.9847734,10.9137971 C18.9985305,9.18216696 20.772539,7.97383509 23.290085,7.97383509 C24.2766643,7.97383509 25.067369,8.16741797 25.5717953,8.34788718 L25.2278683,10.2793448 L24.9979285,10.1763087 C24.5288775,9.99646399 23.9255312,9.82286386 23.0915899,9.83535307 C22.094529,9.83535307 21.632029,10.2312613 21.632029,10.6015666 C21.6267882,11.0187065 22.1718307,11.2934693 23.0627656,11.7068624 C24.532153,12.3425636 25.2114908,13.1137729 25.2023194,14.1272729 C25.1826664,15.9756772 23.4446884,17.1696465 20.765988,17.1696465 Z M31.8044086,17.0397586 C31.8044086,17.0397586 31.5718484,16.0156427 31.4945467,15.7046612 C31.1237606,15.7046612 28.5243272,15.7009144 28.232153,15.7009144 C28.133233,15.9413319 27.696937,17.0397586 27.696937,17.0397586 L25.0221671,17.0397586 L28.8040545,8.87493219 C29.0726452,8.294808 29.5279391,8.13557046 30.1384915,8.13557046 L32.1064093,8.13557046 L34.1680064,17.0391342 L31.8044086,17.0397586 Z" id="Shape"></path>
                            <path d="M30.5734844,11.0739653 L30.3858489,10.2857143 C30.2440481,10.6298531 29.9998355,11.1829105 30.0155911,11.1585581 C30.0155911,11.1585581 29.1354231,13.1881442 28.90625,13.7142857 L31.21875,13.7142857 C31.1070281,13.2560748 30.5734844,11.0739653 30.5734844,11.0739653 Z" id="Path"></path>
                        </g>
                    </g>
                </g>
            </g>
        </g>
    </g>
</svg>