<?xml version="1.0" encoding="UTF-8"?>
<svg width="32px" height="29px" viewBox="0 0 32 29" version="1.1" xmlns="http://www.w3.org/2000/svg" xmlns:xlink="http://www.w3.org/1999/xlink">
    <!-- Generator: Sketch 53 (72520) - https://sketchapp.com -->
    <title>Shape</title>
    <desc>Created with Sketch.</desc>
    <g id="Julia-Allert-Site" stroke="none" stroke-width="1" fill="none" fill-rule="evenodd">
        <g id="Home-page-2" transform="translate(-1257.000000, -27.000000)" fill-rule="nonzero" stroke="#000000" stroke-width="2">
            <g id="cogs-solid" transform="translate(1185.000000, 28.000000)">
                <g id="heartRed" transform="translate(73.000000, 0.000000)">
                    <path d="M27.6609354,2.65226811 C26.081248,0.941983803 23.9682404,6.20297513e-05 21.7109749,6.20297513e-05 C19.4885141,6.20297513e-05 17.3988854,0.916427546 15.8269324,2.58062374 L15.0156434,3.44004595 L14.2035927,2.58037562 C12.6317568,0.916365516 10.5425383,0 8.32072202,0 C6.09820266,0 4.00863251,0.916365516 2.43691388,2.58037562 C0.865429621,4.24395152 0,6.45587043 0,8.80872092 C0,11.1615714 0.865429621,13.3734903 2.43691388,15.0370662 L12.836249,26.0461685 C13.4370107,26.6820355 14.2259169,27 15.0149988,27 C15.803905,26.999938 16.592987,26.6820355 17.1935729,26.0462305 L27.5259354,15.1089587 C30.77115,11.6733169 30.8317359,6.08536672 27.6609354,2.65226811 Z" id="Shape"></path>
                </g>
            </g>
        </g>
    </g>
</svg>