<?xml version="1.0" encoding="UTF-8"?>
<svg width="20px" height="25px" viewBox="0 0 20 25" version="1.1" xmlns="http://www.w3.org/2000/svg" xmlns:xlink="http://www.w3.org/1999/xlink">
    <!-- Generator: Sketch 53 (72520) - https://sketchapp.com -->
    <title>youtube</title>
    <desc>Created with Sketch.</desc>
    <g id="Julia-Allert-Site" stroke="none" stroke-width="1" fill="none" fill-rule="evenodd">
        <g id="Artboard" transform="translate(-39.000000, -636.000000)" fill="#000000" fill-rule="nonzero">
            <g id="Social-icons" transform="translate(19.000000, 246.000000)">
                <g id="if_youtube_online_social_media_734361" transform="translate(0.000000, 369.000000)">
                    <g id="Group">
                        <g id="youtube" transform="translate(20.333333, 21.750000)">
                            <path d="M15.5382549,16.0466667 C15.3636275,16.0466667 15.2392353,16.0962083 15.1626863,16.2013333 C15.0873333,16.3004167 15.0502549,16.4695833 15.0502549,16.7052083 L15.0502549,17.273125 L16.0178824,17.273125 L16.0178824,16.7052083 C16.0178824,16.4695833 15.9784118,16.3004167 15.9018627,16.2013333 C15.8277059,16.0962083 15.7045098,16.0466667 15.5382549,16.0466667 Z" id="Shape"></path>
                            <path d="M11.7658235,16.026125 C11.6868824,16.026125 11.6103333,16.0430417 11.5337843,16.0805 C11.4584314,16.11675 11.3830784,16.17475 11.3077255,16.2520833 L11.3077255,19.7550417 C11.3962353,19.8444583 11.483549,19.9145417 11.5672745,19.9532083 C11.651,19.9930833 11.7383137,20.013625 11.8316078,20.013625 C11.9655686,20.013625 12.0636471,19.9749583 12.1258431,19.894 C12.1880392,19.8154583 12.2215294,19.6885833 12.2215294,19.5073333 L12.2215294,16.6049167 C12.2215294,16.4152083 12.1820588,16.2702083 12.1055098,16.1735417 C12.0277647,16.0744583 11.9129412,16.026125 11.7658235,16.026125 Z" id="Shape"></path>
                            <path d="M17.8454902,11.668875 C16.9460392,10.762625 9.37486275,10.7505417 9.37486275,10.7505417 C9.37486275,10.7493333 1.80368627,10.7614167 0.903039216,11.6676667 C0.00239215686,12.5763333 4.51194637e-13,17.05925 4.51194637e-13,17.084625 C4.51194637e-13,17.1184583 0.00239215686,21.594125 0.903039216,22.5027917 C1.80368627,23.4090417 9.37486275,23.428375 9.37486275,23.428375 C9.37486275,23.428375 16.9472353,23.4090417 17.8454902,22.5027917 C18.7497255,21.5917083 18.758098,17.084625 18.758098,17.084625 C18.758098,17.0604583 18.7473333,12.5775417 17.8454902,11.668875 Z M5.77466667,14.3115 L4.49964706,14.3115 L4.49964706,20.8244167 L3.2664902,20.8244167 L3.2664902,14.3115 L1.99027451,14.3115 L1.99027451,13.2046667 L5.77347059,13.2046667 L5.77347059,14.3115 L5.77466667,14.3115 Z M9.37845098,20.8232083 L8.28643137,20.8232083 L8.28643137,20.20575 C8.08309804,20.434125 7.87378431,20.608125 7.65370588,20.7265417 C7.43482353,20.847375 7.22311765,20.905375 7.01858824,20.905375 C6.76501961,20.905375 6.57723529,20.8232083 6.44686275,20.6540417 C6.32127451,20.4860833 6.2554902,20.2371667 6.2554902,19.90125 L6.2554902,15.2008333 L7.34870588,15.2008333 L7.34870588,19.5121667 C7.34870588,19.6462917 7.37143137,19.74175 7.41568627,19.8021667 C7.46352941,19.8625833 7.53888235,19.8915833 7.64054902,19.8915833 C7.72068627,19.8915833 7.82354902,19.8529167 7.9467451,19.7719583 C8.06994118,19.6934167 8.18237255,19.593125 8.28643137,19.4710833 L8.28643137,15.2008333 L9.37845098,15.2008333 L9.37845098,20.8232083 Z M13.3482353,19.662 C13.3482353,20.0595417 13.2621176,20.3640417 13.0910784,20.5767083 C12.9212353,20.789375 12.6712549,20.8945 12.3471176,20.8945 C12.1318235,20.8945 11.9416471,20.8558333 11.7753922,20.7724583 C11.6079412,20.6902917 11.4500588,20.5658333 11.3077255,20.3918333 L11.3077255,20.8232083 L10.202549,20.8232083 L10.202549,13.2034583 L11.3077255,13.2034583 L11.3077255,15.6575833 C11.4560392,15.486 11.6115294,15.3542917 11.7765882,15.2672917 C11.9440392,15.177875 12.1114902,15.1331667 12.2813333,15.1331667 C12.6281961,15.1331667 12.8925294,15.2527917 13.0743333,15.4908333 C13.2585294,15.7312917 13.3482353,16.0817083 13.3482353,16.5420833 L13.3482353,19.662 Z M17.1421961,18.1491667 L15.0502549,18.1491667 L15.0502549,19.2064583 C15.0502549,19.5025 15.0861373,19.7079167 15.1567059,19.8227083 C15.2308627,19.9375 15.3528627,19.9930833 15.5274902,19.9930833 C15.708098,19.9930833 15.8348824,19.94475 15.9078431,19.8480833 C15.9796078,19.7514167 16.0178824,19.53875 16.0178824,19.2064583 L16.0178824,18.9502917 L17.1433922,18.9502917 L17.1433922,19.2390833 C17.1433922,19.8154583 17.0070392,20.24925 16.7319412,20.542875 C16.4592353,20.8340833 16.0489804,20.977875 15.5047647,20.977875 C15.0155686,20.977875 14.6280392,20.8244167 14.3469608,20.5150833 C14.0658824,20.2069583 13.923549,19.7828333 13.923549,19.2402917 L13.923549,16.7160833 C13.923549,16.2303333 14.0802353,15.830375 14.3888235,15.5246667 C14.6974118,15.21775 15.0957059,15.0642917 15.586098,15.0642917 C16.0872549,15.0642917 16.4723922,15.206875 16.7415098,15.4908333 C17.0106275,15.7747917 17.1433922,16.1832083 17.1433922,16.7160833 L17.1433922,18.1491667 L17.1421961,18.1491667 Z" id="Shape"></path>
                            <path d="M15.5334706,8.39308333 L14.3015098,8.39308333 L14.3015098,7.70916667 C14.0766471,7.9605 13.8398235,8.15383333 13.5934314,8.28433333 C13.3482353,8.41604167 13.1102157,8.4825 12.8793725,8.4825 C12.5923137,8.4825 12.3794118,8.38945833 12.2358824,8.20579167 C12.0923529,8.02091667 12.0193922,7.74541667 12.0193922,7.37566667 L12.0193922,2.200375 L13.2489608,2.200375 L13.2489608,6.94791667 C13.2489608,7.094125 13.2776667,7.20045833 13.329098,7.26570833 C13.3793333,7.33216667 13.4642549,7.36479167 13.5790784,7.36479167 C13.6687843,7.36479167 13.7836078,7.32129167 13.9223529,7.23429167 C14.059902,7.14729167 14.1878824,7.036125 14.3015098,6.90079167 L14.3015098,2.200375 L15.5334706,2.200375 L15.5334706,8.39308333 L15.5334706,8.39308333 Z" id="Shape"></path>
                            <path d="M10.5326667,2.494 C10.2061373,2.19433333 9.7875098,2.04329167 9.27798039,2.04329167 C8.71941176,2.04329167 8.27207843,2.185875 7.94196078,2.46983333 C7.60945098,2.75379167 7.44319608,3.135625 7.44439216,3.61654167 L7.44439216,6.825875 C7.44439216,7.35270833 7.60705882,7.77079167 7.92880392,8.08254167 C8.25294118,8.39308333 8.68472549,8.54895833 9.22296078,8.54895833 C9.78392157,8.54895833 10.2216863,8.39791667 10.5434314,8.09704167 C10.8615882,7.79495833 11.0206667,7.3805 11.0206667,6.85125 L11.0206667,3.65158333 C11.0194706,3.18033333 10.8568039,2.79366667 10.5326667,2.494 Z M9.76478431,6.94429167 C9.76478431,7.108625 9.7157451,7.239125 9.61766667,7.33579167 C9.51839216,7.43004167 9.38682353,7.47716667 9.22056863,7.47716667 C9.05670588,7.47716667 8.93111765,7.43125 8.845,7.33820833 C8.75768627,7.24395833 8.71223529,7.11345833 8.71223529,6.94429167 L8.71223529,3.570625 C8.71223529,3.43529167 8.76007843,3.32533333 8.85337255,3.24195833 C8.94786275,3.15858333 9.06986275,3.1175 9.22056863,3.1175 C9.38203922,3.1175 9.51360784,3.15858333 9.61407843,3.24195833 C9.71454902,3.32533333 9.76478431,3.43529167 9.76478431,3.570625 L9.76478431,6.94429167 Z" id="Shape"></path>
                            <polygon id="Shape" points="4.08939216 1.77546866e-12 2.69237255 1.77546866e-12 4.34296078 5.06775 4.34296078 8.39308333 5.73041176 8.39308333 5.73041176 4.91066667 7.34392157 1.77546866e-12 5.9337451 1.77546866e-12 5.07735294 3.35433333 4.99003922 3.35433333"></polygon>
                        </g>
                    </g>
                </g>
            </g>
        </g>
    </g>
</svg>